<?xml version="1.0" encoding="UTF-8"?>
<svg id="Capa_1" xmlns="http://www.w3.org/2000/svg" version="1.1" viewBox="0 0 115.05 153.8">
  <!-- Generator: Adobe Illustrator 29.5.1, SVG Export Plug-In . SVG Version: 2.1.0 Build 141)  -->
  <defs>
    <style>
      .st0 {
        fill: #fff;
      }
    </style>
  </defs>
  <g>
    <path class="st0" d="M41.61,42.11c0-3.54.67-6.83,2-9.89,1.33-3.06,3.27-5.72,5.8-7.97,2.53-2.25,5.62-4.03,9.27-5.32,3.65-1.29,7.78-1.94,12.4-1.94,4.04,0,7.75.41,11.13,1.22,3.38.82,6.51,2.06,9.42,3.73l-4.64,7.62c-.87-.57-1.87-1.08-3-1.52-1.13-.44-2.34-.82-3.62-1.13-1.28-.31-2.6-.54-3.97-.71-1.37-.17-2.72-.25-4.05-.25-3.22,0-6.09.4-8.61,1.19-2.52.79-4.64,1.91-6.37,3.33-1.73,1.43-3.04,3.13-3.94,5.11-.9,1.98-1.35,4.16-1.35,6.53s.47,4.71,1.4,6.76c.93,2.05,2.28,3.83,4.05,5.32,1.77,1.49,3.93,2.66,6.48,3.49,2.55.84,5.44,1.25,8.65,1.25,1.46,0,2.91-.11,4.35-.32,1.44-.21,2.83-.5,4.18-.87,1.34-.37,2.64-.81,3.89-1.33,1.25-.52,2.41-1.08,3.49-1.7l4.64,7.62c-2.71,1.74-5.84,3.1-9.4,4.08s-7.34,1.48-11.34,1.48c-5.1,0-9.58-.66-13.43-1.98-3.85-1.32-7.07-3.14-9.65-5.46-2.58-2.32-4.53-5.05-5.83-8.19s-1.95-6.53-1.95-10.15Z"/>
    <path class="st0" d="M44.63,76.49h26.52c3.24,0,6.06.34,8.46,1.03,2.4.69,4.4,1.64,5.99,2.84s2.77,2.64,3.54,4.3c.77,1.66,1.16,3.46,1.16,5.38,0,3.15-1,5.92-2.99,8.29,2.29,1.35,3.99,3.11,5.11,5.27,1.12,2.16,1.68,4.62,1.68,7.37,0,2.31-.39,4.39-1.16,6.26-.77,1.86-1.95,3.46-3.52,4.78-1.58,1.32-3.57,2.34-5.97,3.05-2.4.71-5.23,1.06-8.49,1.06h-30.33v-49.63ZM75.02,95.54c.87,0,1.71.03,2.54.1,1.42-1.35,2.13-2.9,2.13-4.64s-.7-3.19-2.11-4.18c-1.41-.98-3.47-1.48-6.18-1.48h-16.7v10.19h20.32ZM75.21,117.36c2.71,0,4.77-.58,6.18-1.75,1.41-1.16,2.11-2.81,2.11-4.92s-.7-3.77-2.11-4.95c-1.41-1.19-3.47-1.78-6.18-1.78h-20.51v13.4h20.51Z"/>
  </g>
  <g>
    <path class="st0" d="M19.31,124.88v-12.4h3.1v9.45h3.47v-8.37h2.91v8.37h4.84v-9.64h3.08v12.59h-17.4Z"/>
    <path class="st0" d="M31.54,108.32c.36-.53.68-1.06.96-1.61.29-.54.53-1.11.72-1.69.2-.58.35-1.2.45-1.84s.16-1.33.16-2.05c0-.88-.07-1.62-.21-2.24s-.33-1.12-.57-1.5c-.24-.39-.53-.67-.86-.85s-.7-.27-1.09-.27c-.63,0-1.13.22-1.5.66-.37.44-.55,1.12-.55,2.04,0,.4.03.83.09,1.28s.13.9.21,1.36.14.91.21,1.35c.06.44.09.86.09,1.25,0,.65-.1,1.28-.3,1.88-.2.6-.5,1.13-.9,1.59-.4.46-.9.83-1.5,1.1-.6.27-1.3.41-2.1.41-.48,0-.95-.05-1.41-.16-.47-.11-.91-.28-1.34-.52-.43-.24-.82-.55-1.19-.93-.37-.38-.68-.84-.95-1.37-.27-.54-.48-1.16-.63-1.86-.15-.7-.23-1.51-.23-2.41,0-.65.04-1.31.13-1.97.09-.66.21-1.3.36-1.92s.34-1.23.56-1.8.46-1.11.73-1.61l2.85,1.29c-.22.41-.41.85-.6,1.32-.18.47-.34.97-.47,1.48-.13.52-.24,1.05-.32,1.6s-.12,1.11-.12,1.68c0,.81.07,1.48.21,2.01.14.52.32.94.54,1.25.22.31.46.53.73.65s.54.18.81.18c.52,0,.94-.2,1.27-.59s.5-.99.5-1.79c0-.32-.03-.69-.08-1.11s-.12-.86-.18-1.32c-.07-.46-.13-.93-.18-1.42-.06-.48-.08-.95-.08-1.4,0-.86.12-1.62.35-2.28s.56-1.22.99-1.66.94-.79,1.55-1.02c.6-.23,1.28-.34,2.03-.34,1,0,1.89.19,2.68.58.78.39,1.44.94,1.98,1.66s.95,1.58,1.22,2.59c.28,1.01.42,2.14.42,3.38,0,.82-.06,1.62-.18,2.4s-.3,1.53-.52,2.25-.5,1.4-.81,2.05c-.32.65-.66,1.25-1.04,1.8l-2.86-1.57Z"/>
    <path class="st0" d="M22.41,85.54v5.38h-3.1v-13.7h3.1v5.38h14.31v2.95h-14.31Z"/>
    <path class="st0" d="M19.31,74.61v-2.95h9.59c.79,0,1.49-.09,2.1-.27.61-.18,1.13-.45,1.55-.81.42-.36.74-.8.96-1.33.22-.53.33-1.14.33-1.84s-.11-1.31-.33-1.84-.54-.97-.96-1.33c-.42-.36-.94-.63-1.55-.81-.61-.18-1.31-.27-2.1-.27h-9.59v-2.95h10.01c1.14,0,2.18.16,3.12.48.94.32,1.74.79,2.41,1.41.67.61,1.18,1.37,1.55,2.26.36.89.55,1.91.55,3.05s-.18,2.16-.55,3.05c-.36.89-.88,1.64-1.55,2.26s-1.47,1.08-2.41,1.41c-.94.32-1.97.48-3.12.48h-10.01Z"/>
    <path class="st0" d="M19.31,56.61v-5.34c0-1.56.2-2.91.6-4.06s.97-2.1,1.72-2.86,1.65-1.32,2.72-1.69,2.26-.55,3.59-.55,2.43.18,3.5.55,2,.93,2.78,1.68,1.4,1.7,1.84,2.85.66,2.5.66,4.06v5.36h-17.41ZM33.66,50.55c0-.88-.14-1.66-.41-2.32s-.66-1.22-1.15-1.66-1.1-.78-1.8-1-1.49-.34-2.36-.34-1.62.11-2.31.34-1.27.56-1.75,1-.85,1-1.11,1.66-.39,1.44-.39,2.32v3.11h11.28v-3.11Z"/>
    <path class="st0" d="M19.31,39.53v-2.97h17.4v2.97h-17.4Z"/>
    <path class="st0" d="M27.96,33.65c-1.31,0-2.52-.2-3.61-.61s-2.03-.97-2.81-1.7-1.39-1.61-1.82-2.63-.65-2.15-.65-3.4.22-2.37.65-3.39,1.04-1.9,1.82-2.63,1.72-1.3,2.81-1.7,2.29-.61,3.61-.61,2.53.2,3.64.61,2.05.97,2.84,1.7,1.41,1.61,1.85,2.63c.44,1.02.66,2.16.66,3.39s-.22,2.37-.66,3.4c-.44,1.02-1.06,1.9-1.85,2.63s-1.74,1.3-2.84,1.7-2.31.61-3.64.61ZM27.96,30.7c.9,0,1.71-.14,2.43-.41s1.33-.65,1.84-1.13.9-1.05,1.17-1.7.41-1.37.41-2.14-.14-1.48-.41-2.14-.67-1.22-1.17-1.7-1.12-.85-1.84-1.13-1.53-.41-2.43-.41-1.7.14-2.42.41-1.32.65-1.81,1.13-.87,1.04-1.13,1.7-.39,1.37-.39,2.14.13,1.48.39,2.14.64,1.22,1.13,1.7,1.1.86,1.81,1.13,1.52.41,2.42.41Z"/>
  </g>
</svg>