<svg id="Capa_1" data-name="Capa 1" xmlns="http://www.w3.org/2000/svg" viewBox="0 0 823.6 290.09"><defs><style>.cls-1{fill:#1d1d1b;}</style></defs><path class="cls-1" d="M70.55,79a65.19,65.19,0,0,1,5.31-26.29,60.7,60.7,0,0,1,15.4-21.18A73.23,73.23,0,0,1,115.9,17.42q14.56-5.15,33-5.15a126.29,126.29,0,0,1,29.57,3.25,93.86,93.86,0,0,1,25,9.92L191.13,45.69a42.69,42.69,0,0,0-8-4,73.68,73.68,0,0,0-9.62-3A97.46,97.46,0,0,0,163,36.74a87.3,87.3,0,0,0-10.76-.67,76.07,76.07,0,0,0-22.87,3.16,49.75,49.75,0,0,0-16.92,8.86A37.82,37.82,0,0,0,102,61.68,41.43,41.43,0,0,0,98.39,79a43,43,0,0,0,3.72,18,39.87,39.87,0,0,0,10.76,14.13,50.72,50.72,0,0,0,17.21,9.28,73.42,73.42,0,0,0,23,3.34,79.77,79.77,0,0,0,11.56-.85,90.72,90.72,0,0,0,11.09-2.32A86.14,86.14,0,0,0,186.07,117a82.49,82.49,0,0,0,9.28-4.52l12.32,20.26a91.16,91.16,0,0,1-25,10.84,112.41,112.41,0,0,1-30.13,3.92q-20.34,0-35.7-5.27T91.22,127.75A59.55,59.55,0,0,1,75.74,106,69.74,69.74,0,0,1,70.55,79Z" transform="translate(-10.65 -12.19)"/><path class="cls-1" d="M282.1,13.87h28.36l63.79,131.9h-28.1L335.6,123.58h-77l-10.21,22.19H220.16Zm43,87.68L296.53,41.64l-27.76,59.91Z" transform="translate(-10.65 -12.19)"/><path class="cls-1" d="M400.92,106.53a160.89,160.89,0,0,0,14.56,7.3,115.41,115.41,0,0,0,15.31,5.49,120.48,120.48,0,0,0,16.67,3.41,138.5,138.5,0,0,0,18.61,1.18,111.4,111.4,0,0,0,20.25-1.56,49.55,49.55,0,0,0,13.63-4.3,19.45,19.45,0,0,0,7.68-6.54,15.18,15.18,0,0,0,2.4-8.27,13.14,13.14,0,0,0-6-11.35q-6-4.17-18.48-4.18a98.33,98.33,0,0,0-11.56.72q-6.08.72-12.28,1.56c-4.13.56-8.21,1.09-12.24,1.56a95.94,95.94,0,0,1-11.35.72,62.79,62.79,0,0,1-17-2.28,45.16,45.16,0,0,1-14.43-6.83,33.93,33.93,0,0,1-10-11.4,32.94,32.94,0,0,1-3.71-16,40,40,0,0,1,1.47-10.71,35.14,35.14,0,0,1,4.73-10.17,41,41,0,0,1,8.4-9A50.62,50.62,0,0,1,420,18.68a82.22,82.22,0,0,1,16.88-4.76,124,124,0,0,1,21.81-1.73,164.2,164.2,0,0,1,17.81,1q8.94,1,17.43,2.74a166.3,166.3,0,0,1,16.32,4.26,133.62,133.62,0,0,1,14.6,5.53l-11.73,21.6a125.62,125.62,0,0,0-12-4.51q-6.41-2.07-13.42-3.59t-14.47-2.4a127.15,127.15,0,0,0-15.23-.89,85.85,85.85,0,0,0-18.19,1.6,39.93,39.93,0,0,0-11.35,4.1,15,15,0,0,0-5.86,5.57A12.85,12.85,0,0,0,421,53.28q0,5.91,5.32,9.67t16.2,3.75a93,93,0,0,0,10.09-.63q5.68-.63,12-1.39t12.83-1.4q6.54-.63,12.7-.63a73.73,73.73,0,0,1,20.63,2.62,43.18,43.18,0,0,1,15.06,7.46A31.61,31.61,0,0,1,535,84.46a36.88,36.88,0,0,1,3.12,15.4,39.13,39.13,0,0,1-5.27,20.3,44.55,44.55,0,0,1-15,15,76,76,0,0,1-23.5,9.28,136.85,136.85,0,0,1-30.64,3.17,169.06,169.06,0,0,1-21.77-1.39,161.91,161.91,0,0,1-20.38-4A153.49,153.49,0,0,1,403,136.11a135.32,135.32,0,0,1-16.33-7.89Z" transform="translate(-10.65 -12.19)"/><path class="cls-1" d="M612.56,13.87h28.36l63.79,131.9h-28.1l-10.55-22.19H589l-10.21,22.19H550.62Zm43,87.68L627,41.64l-27.76,59.91Z" transform="translate(-10.65 -12.19)"/><path class="cls-1" d="M78.56,170.38H149a82,82,0,0,1,22.48,2.74,47.93,47.93,0,0,1,15.91,7.55,30.36,30.36,0,0,1,9.41,11.44,33.55,33.55,0,0,1,3.08,14.3,33.21,33.21,0,0,1-7.93,22,34.94,34.94,0,0,1,13.58,14A41.76,41.76,0,0,1,210,262,43.11,43.11,0,0,1,207,278.65a32.88,32.88,0,0,1-9.37,12.7,43.69,43.69,0,0,1-15.86,8.1,80.45,80.45,0,0,1-22.58,2.82H78.56ZM159.32,221q3.47,0,6.75.25,5.66-5.4,5.66-12.32a12.72,12.72,0,0,0-5.62-11.09q-5.61-3.93-16.41-3.93H105.31V221Zm.51,58q10.8,0,16.41-4.64t5.61-13.08q0-8.43-5.61-13.16t-16.41-4.73H105.31V279Z" transform="translate(-10.65 -12.19)"/><path class="cls-1" d="M237.13,170.38h67.08q15.19,0,26.33,3.16A50.65,50.65,0,0,1,349,182.7,36.83,36.83,0,0,1,360,197.3a50.27,50.27,0,0,1,3.59,19.49,53.48,53.48,0,0,1-1.78,14A41.37,41.37,0,0,1,356.32,243a41.83,41.83,0,0,1-9.24,9.92A50.27,50.27,0,0,1,334,260.08l28.69,42.19H330l-24.81-37.46h-.76l-40.5-.09v37.55H237.13Zm67.76,71.22a44.93,44.93,0,0,0,13.29-1.77,27.26,27.26,0,0,0,9.53-5,19.89,19.89,0,0,0,5.74-7.81,26.51,26.51,0,0,0,1.9-10.25q0-11.06-7.59-17.09t-22.87-6h-41V241.6Z" transform="translate(-10.65 -12.19)"/><path class="cls-1" d="M440.16,170.38h28.35l63.8,131.89h-28.1l-10.55-22.19h-77L406.4,302.27H378.22Zm42.95,87.68-28.52-59.92-27.76,59.92Z" transform="translate(-10.65 -12.19)"/><path class="cls-1" d="M535.18,170.38H564.8L606.23,271l41.44-100.59h29.62L619.48,302.27H593Z" transform="translate(-10.65 -12.19)"/><path class="cls-1" d="M742.1,170.38h28.35l63.8,131.89H806.14L795.6,280.08H718.55l-10.21,22.19H680.16Zm42.95,87.68-28.52-59.92-27.77,59.92Z" transform="translate(-10.65 -12.19)"/><path class="cls-1" d="M11.27,300.56V267.43h8.27v25.24h9.29V270.32h7.76v22.35H49.54V266.91h8.24v33.65Z" transform="translate(-10.65 -12.19)"/><path class="cls-1" d="M43.94,256.33a46.58,46.58,0,0,0,2.58-4.3,31.54,31.54,0,0,0,1.93-4.51,30.5,30.5,0,0,0,1.21-4.92,35.4,35.4,0,0,0,.41-5.49,27.58,27.58,0,0,0-.55-6,12.8,12.8,0,0,0-1.52-4,6.08,6.08,0,0,0-2.3-2.27,6.18,6.18,0,0,0-2.92-.71,4.93,4.93,0,0,0-4,1.77c-1,1.18-1.47,3-1.47,5.45a24.14,24.14,0,0,0,.25,3.41c.17,1.2.35,2.4.55,3.62s.38,2.43.55,3.61a23.64,23.64,0,0,1,.25,3.35,15.66,15.66,0,0,1-.8,5,12.32,12.32,0,0,1-2.41,4.25,11.48,11.48,0,0,1-4,2.95,13.45,13.45,0,0,1-5.62,1.1,16.68,16.68,0,0,1-3.78-.44,13.5,13.5,0,0,1-3.58-1.39,14,14,0,0,1-3.19-2.48A14.3,14.3,0,0,1,13,250.69a20.79,20.79,0,0,1-1.68-5,30.4,30.4,0,0,1-.61-6.43A40.51,40.51,0,0,1,11,234a45.29,45.29,0,0,1,1-5.14,40.8,40.8,0,0,1,1.5-4.81,34.2,34.2,0,0,1,1.95-4.31l7.62,3.46a33.84,33.84,0,0,0-1.6,3.53,39.81,39.81,0,0,0-1.26,4,38.39,38.39,0,0,0-.85,4.27,31.79,31.79,0,0,0-.31,4.5,21.47,21.47,0,0,0,.56,5.36,10.59,10.59,0,0,0,1.45,3.35,4.94,4.94,0,0,0,2,1.73,5.28,5.28,0,0,0,2.16.48,4.25,4.25,0,0,0,3.4-1.56,7.25,7.25,0,0,0,1.33-4.78,24.47,24.47,0,0,0-.22-3c-.15-1.12-.32-2.3-.5-3.53s-.34-2.5-.49-3.79a32.15,32.15,0,0,1-.22-3.74,18.65,18.65,0,0,1,.92-6.09A12.09,12.09,0,0,1,32,219.49a11.11,11.11,0,0,1,4.13-2.72,15.31,15.31,0,0,1,5.43-.92,15.87,15.87,0,0,1,7.16,1.56A14.55,14.55,0,0,1,54,221.84a20.61,20.61,0,0,1,3.28,6.93,34.28,34.28,0,0,1,1.11,9,41.11,41.11,0,0,1-.49,6.42,40.54,40.54,0,0,1-1.4,6,40.06,40.06,0,0,1-2.17,5.48,38,38,0,0,1-2.78,4.82Z" transform="translate(-10.65 -12.19)"/><path class="cls-1" d="M19.54,195.44V209.8H11.27V173.18h8.27v14.37H57.78v7.89Z" transform="translate(-10.65 -12.19)"/><path class="cls-1" d="M11.27,166.24v-7.89H36.89a20,20,0,0,0,5.61-.72,11.29,11.29,0,0,0,4.15-2.16,9,9,0,0,0,2.57-3.55,14.19,14.19,0,0,0,0-9.84,9,9,0,0,0-2.57-3.56,11.28,11.28,0,0,0-4.15-2.15,19.62,19.62,0,0,0-5.61-.73H11.27v-7.89H38a25.19,25.19,0,0,1,8.33,1.3,18,18,0,0,1,6.43,3.76,16.61,16.61,0,0,1,4.14,6,23.66,23.66,0,0,1,0,16.31,16.74,16.74,0,0,1-4.14,6,18.09,18.09,0,0,1-6.43,3.75,25.19,25.19,0,0,1-8.33,1.3Z" transform="translate(-10.65 -12.19)"/><path class="cls-1" d="M11.27,118.14V103.88A33,33,0,0,1,12.88,93a19.92,19.92,0,0,1,4.6-7.63,18.57,18.57,0,0,1,7.26-4.51,29,29,0,0,1,9.59-1.48,28.79,28.79,0,0,1,9.36,1.47,19.81,19.81,0,0,1,7.44,4.48A20.68,20.68,0,0,1,56,93a30.17,30.17,0,0,1,1.77,10.85l0,14.31Zm38.36-16.2a16.42,16.42,0,0,0-1.09-6.2,11.7,11.7,0,0,0-3.08-4.44,13.09,13.09,0,0,0-4.82-2.68,20.73,20.73,0,0,0-6.31-.9,19.76,19.76,0,0,0-6.17.9,12.37,12.37,0,0,0-4.67,2.68,11.67,11.67,0,0,0-3,4.44,16.85,16.85,0,0,0-1.05,6.2v8.31H49.63Z" transform="translate(-10.65 -12.19)"/><path class="cls-1" d="M11.27,72.49V64.55H57.78v7.94Z" transform="translate(-10.65 -12.19)"/><path class="cls-1" d="M34.39,56.78a27.58,27.58,0,0,1-9.64-1.62,22.17,22.17,0,0,1-7.51-4.54,20.22,20.22,0,0,1-4.87-7,23.13,23.13,0,0,1-1.72-9.07,23.2,23.2,0,0,1,1.72-9.07,20.26,20.26,0,0,1,4.87-7,22.17,22.17,0,0,1,7.51-4.54,27.58,27.58,0,0,1,9.64-1.62,28.08,28.08,0,0,1,9.72,1.62,22.59,22.59,0,0,1,7.6,4.54,20.46,20.46,0,0,1,4.95,7,22.68,22.68,0,0,1,1.77,9.07,22.61,22.61,0,0,1-1.77,9.07,20.42,20.42,0,0,1-4.95,7,22.59,22.59,0,0,1-7.6,4.54A28.08,28.08,0,0,1,34.39,56.78Zm0-7.89a18.44,18.44,0,0,0,6.49-1.08,14.4,14.4,0,0,0,4.92-3,13.12,13.12,0,0,0,3.14-4.55,15.4,15.4,0,0,0,0-11.43,13.08,13.08,0,0,0-3.14-4.54,14.7,14.7,0,0,0-4.92-3,18.22,18.22,0,0,0-6.49-1.1,18,18,0,0,0-6.46,1.1,14.09,14.09,0,0,0-4.83,3,12.77,12.77,0,0,0-3,4.54,16.22,16.22,0,0,0,0,11.43,12.81,12.81,0,0,0,3,4.55,13.82,13.82,0,0,0,4.83,3A18.2,18.2,0,0,0,34.39,48.89Z" transform="translate(-10.65 -12.19)"/></svg>