<?xml version="1.0" encoding="utf-8"?>
<!-- Generator: Adobe Illustrator 25.4.1, SVG Export Plug-In . SVG Version: 6.00 Build 0)  -->
<svg version="1.1" id="Capa_1" xmlns="http://www.w3.org/2000/svg" xmlns:xlink="http://www.w3.org/1999/xlink" x="0px" y="0px"
	 viewBox="0 0 357.17 138.9" style="enable-background:new 0 0 357.17 138.9;" xml:space="preserve">
<style type="text/css">
	.st0{fill:#FFFFFF;}
</style>
<g>
	<g>
		<path class="st0" d="M45.89,39.65c0-3.54,0.67-6.83,2-9.89c1.33-3.06,3.27-5.72,5.8-7.97c2.53-2.25,5.62-4.03,9.27-5.32
			c3.65-1.29,7.78-1.94,12.4-1.94c4.04,0,7.75,0.41,11.13,1.22c3.38,0.82,6.51,2.06,9.42,3.73l-4.64,7.62
			c-0.87-0.57-1.87-1.08-3-1.52c-1.13-0.44-2.34-0.82-3.62-1.13c-1.28-0.31-2.6-0.54-3.97-0.71c-1.37-0.17-2.72-0.25-4.05-0.25
			c-3.22,0-6.09,0.4-8.61,1.19c-2.52,0.79-4.64,1.91-6.37,3.33c-1.73,1.43-3.04,3.13-3.94,5.11c-0.9,1.98-1.35,4.16-1.35,6.53
			c0,2.46,0.47,4.71,1.4,6.76c0.93,2.05,2.28,3.83,4.05,5.32c1.77,1.49,3.93,2.66,6.48,3.49c2.55,0.84,5.44,1.25,8.65,1.25
			c1.46,0,2.91-0.11,4.35-0.32c1.44-0.21,2.83-0.5,4.18-0.87c1.34-0.37,2.64-0.81,3.89-1.33c1.25-0.52,2.41-1.08,3.49-1.7l4.64,7.62
			c-2.71,1.74-5.84,3.1-9.4,4.08c-3.56,0.98-7.34,1.48-11.34,1.48c-5.1,0-9.58-0.66-13.43-1.98c-3.85-1.32-7.07-3.14-9.65-5.46
			c-2.58-2.32-4.53-5.05-5.83-8.19C46.54,46.65,45.89,43.27,45.89,39.65z"/>
		<path class="st0" d="M125.5,15.13h10.67l24.01,49.63H149.6l-3.97-8.35h-28.99l-3.84,8.35h-10.61L125.5,15.13z M141.66,48.13
			l-10.73-22.55l-10.45,22.55H141.66z"/>
		<path class="st0" d="M170.21,50c1.8,1.02,3.63,1.93,5.48,2.75c1.85,0.82,3.77,1.5,5.76,2.06c1.99,0.56,4.08,0.99,6.27,1.29
			c2.19,0.3,4.53,0.44,7,0.44c2.99,0,5.53-0.2,7.62-0.59c2.1-0.39,3.81-0.93,5.13-1.62c1.32-0.69,2.29-1.51,2.89-2.46
			s0.91-1.99,0.91-3.11c0-1.8-0.75-3.22-2.25-4.27c-1.5-1.05-3.82-1.57-6.95-1.57c-1.38,0-2.83,0.09-4.35,0.27
			c-1.52,0.18-3.06,0.38-4.62,0.59c-1.56,0.21-3.09,0.41-4.6,0.59c-1.51,0.18-2.94,0.27-4.27,0.27c-2.22,0-4.36-0.29-6.4-0.86
			c-2.04-0.57-3.85-1.43-5.43-2.57c-1.58-1.14-2.83-2.57-3.76-4.29c-0.93-1.71-1.4-3.72-1.4-6c0-1.35,0.19-2.7,0.56-4.03
			s0.96-2.61,1.78-3.83c0.82-1.22,1.87-2.35,3.16-3.4c1.29-1.05,2.85-1.95,4.68-2.72s3.95-1.36,6.35-1.79
			c2.4-0.43,5.14-0.65,8.21-0.65c2.22,0,4.46,0.12,6.7,0.37c2.24,0.24,4.43,0.59,6.56,1.03c2.13,0.44,4.18,0.98,6.14,1.6
			c1.97,0.62,3.8,1.32,5.49,2.08l-4.41,8.13c-1.4-0.61-2.9-1.18-4.51-1.7c-1.61-0.52-3.29-0.97-5.05-1.35s-3.57-0.68-5.45-0.91
			s-3.78-0.33-5.73-0.33c-2.77,0-5.05,0.2-6.84,0.6c-1.79,0.4-3.21,0.92-4.27,1.54c-1.06,0.62-1.79,1.32-2.21,2.1
			c-0.41,0.77-0.62,1.54-0.62,2.3c0,1.48,0.67,2.69,2,3.64c1.33,0.94,3.37,1.41,6.1,1.41c1.1,0,2.37-0.08,3.79-0.24
			c1.43-0.16,2.93-0.33,4.51-0.52c1.58-0.19,3.19-0.37,4.83-0.52c1.64-0.16,3.23-0.24,4.78-0.24c2.92,0,5.51,0.33,7.76,0.98
			c2.25,0.66,4.14,1.59,5.67,2.81c1.52,1.22,2.68,2.69,3.46,4.41c0.78,1.73,1.17,3.66,1.17,5.8c0,2.86-0.66,5.4-1.98,7.64
			c-1.32,2.23-3.21,4.12-5.65,5.65c-2.45,1.54-5.39,2.7-8.84,3.49c-3.45,0.79-7.29,1.19-11.53,1.19c-2.79,0-5.53-0.17-8.19-0.52
			c-2.67-0.35-5.22-0.85-7.67-1.49c-2.45-0.65-4.77-1.42-6.99-2.32c-2.21-0.9-4.26-1.89-6.14-2.97L170.21,50z"/>
		<path class="st0" d="M249.85,15.13h10.67l24.01,49.63h-10.57l-3.97-8.35h-28.99l-3.84,8.35h-10.61L249.85,15.13z M266.02,48.13
			l-10.73-22.55l-10.45,22.55H266.02z"/>
		<path class="st0" d="M48.9,74.03h26.52c3.24,0,6.06,0.34,8.46,1.03c2.4,0.69,4.4,1.64,5.99,2.84c1.59,1.21,2.77,2.64,3.54,4.3
			c0.77,1.66,1.16,3.46,1.16,5.38c0,3.15-1,5.92-2.99,8.29c2.29,1.35,3.99,3.11,5.11,5.27c1.12,2.16,1.68,4.62,1.68,7.37
			c0,2.31-0.39,4.39-1.16,6.26c-0.77,1.86-1.95,3.46-3.52,4.78c-1.58,1.32-3.57,2.34-5.97,3.05c-2.4,0.71-5.23,1.06-8.49,1.06H48.9
			V74.03z M79.29,93.08c0.87,0,1.71,0.03,2.54,0.1c1.42-1.35,2.13-2.9,2.13-4.64c0-1.8-0.7-3.19-2.11-4.18
			c-1.41-0.98-3.47-1.48-6.18-1.48h-16.7v10.19H79.29z M79.48,114.9c2.71,0,4.77-0.58,6.18-1.75c1.41-1.16,2.11-2.81,2.11-4.92
			c0-2.12-0.7-3.77-2.11-4.95c-1.41-1.19-3.47-1.78-6.18-1.78H58.97v13.4H79.48z"/>
		<path class="st0" d="M108.57,74.03h25.25c3.81,0,7.11,0.4,9.91,1.19c2.79,0.79,5.11,1.94,6.95,3.45c1.84,1.5,3.21,3.33,4.11,5.49
			c0.9,2.16,1.35,4.6,1.35,7.34c0,1.84-0.22,3.59-0.67,5.26c-0.44,1.66-1.13,3.19-2.05,4.59c-0.92,1.4-2.08,2.64-3.48,3.73
			c-1.4,1.09-3.04,2-4.92,2.72l10.8,15.88H143.5l-9.34-14.1h-0.29l-15.24-0.03v14.13h-10.07V74.03z M134.07,100.83
			c1.91,0,3.57-0.22,5-0.67c1.43-0.44,2.62-1.07,3.59-1.87c0.96-0.8,1.68-1.78,2.16-2.94c0.48-1.15,0.71-2.44,0.71-3.86
			c0-2.77-0.95-4.92-2.86-6.43c-1.91-1.51-4.77-2.27-8.61-2.27h-15.43v18.04H134.07z"/>
		<path class="st0" d="M184.98,74.03h10.67l24.01,49.63h-10.57l-3.97-8.35h-28.99l-3.84,8.35h-10.61L184.98,74.03z M201.14,107.02
			l-10.73-22.55l-10.45,22.55H201.14z"/>
		<path class="st0" d="M220.73,74.03h11.15l15.59,37.85l15.59-37.85h11.15l-21.75,49.63h-9.97L220.73,74.03z"/>
		<path class="st0" d="M298.6,74.03h10.67l24.01,49.63H322.7l-3.97-8.35h-28.99l-3.84,8.35h-10.61L298.6,74.03z M314.76,107.02
			l-10.73-22.55l-10.45,22.55H314.76z"/>
	</g>
	<g>
		<path class="st0" d="M23.58,123.02v-12.47h3.11v9.5h3.49v-8.41h2.92v8.41h4.87v-9.7h3.1v12.67H23.58z"/>
		<path class="st0" d="M35.88,106.37c0.36-0.53,0.68-1.07,0.97-1.62c0.29-0.55,0.53-1.11,0.73-1.7c0.2-0.59,0.35-1.2,0.45-1.85
			c0.1-0.65,0.16-1.33,0.16-2.07c0-0.88-0.07-1.63-0.21-2.25c-0.14-0.62-0.33-1.12-0.57-1.51c-0.24-0.39-0.53-0.67-0.87-0.85
			c-0.34-0.18-0.7-0.27-1.1-0.27c-0.63,0-1.14,0.22-1.51,0.67c-0.37,0.44-0.55,1.13-0.55,2.05c0,0.41,0.03,0.83,0.1,1.28
			s0.13,0.9,0.21,1.36c0.07,0.46,0.14,0.91,0.21,1.36c0.06,0.45,0.1,0.87,0.1,1.26c0,0.66-0.1,1.28-0.3,1.89
			c-0.2,0.6-0.5,1.14-0.91,1.6c-0.4,0.47-0.91,0.84-1.51,1.11c-0.6,0.27-1.31,0.41-2.12,0.41c-0.48,0-0.95-0.05-1.42-0.16
			c-0.47-0.11-0.92-0.28-1.35-0.52c-0.43-0.24-0.83-0.55-1.2-0.93c-0.37-0.38-0.69-0.84-0.96-1.38c-0.27-0.54-0.48-1.16-0.63-1.87
			c-0.15-0.71-0.23-1.52-0.23-2.42c0-0.66,0.04-1.31,0.13-1.98c0.09-0.66,0.21-1.31,0.36-1.93s0.35-1.23,0.57-1.81
			s0.46-1.12,0.73-1.62l2.87,1.3c-0.22,0.41-0.42,0.86-0.6,1.33c-0.18,0.47-0.34,0.97-0.48,1.49c-0.13,0.52-0.24,1.05-0.32,1.61
			c-0.08,0.55-0.12,1.12-0.12,1.69c0,0.82,0.07,1.49,0.21,2.02c0.14,0.53,0.32,0.95,0.54,1.26c0.22,0.31,0.47,0.53,0.74,0.65
			s0.54,0.18,0.81,0.18c0.52,0,0.95-0.2,1.28-0.59c0.33-0.39,0.5-0.99,0.5-1.8c0-0.32-0.03-0.7-0.08-1.12
			c-0.06-0.42-0.12-0.86-0.18-1.33c-0.07-0.47-0.13-0.94-0.18-1.42c-0.06-0.48-0.08-0.95-0.08-1.41c0-0.86,0.12-1.63,0.35-2.29
			c0.23-0.67,0.56-1.22,0.99-1.67c0.43-0.45,0.95-0.79,1.56-1.02c0.61-0.23,1.29-0.35,2.04-0.35c1.01,0,1.91,0.2,2.69,0.59
			c0.79,0.39,1.45,0.95,1.99,1.67s0.95,1.59,1.23,2.61c0.28,1.02,0.42,2.15,0.42,3.4c0,0.82-0.06,1.63-0.18,2.42
			c-0.12,0.79-0.3,1.54-0.53,2.26c-0.23,0.72-0.5,1.41-0.82,2.06c-0.32,0.65-0.67,1.26-1.05,1.81L35.88,106.37z"/>
		<path class="st0" d="M26.69,83.46v5.41h-3.11V75.08h3.11v5.41h14.39v2.97H26.69z"/>
		<path class="st0" d="M23.58,72.47V69.5h9.64c0.79,0,1.49-0.09,2.11-0.27c0.62-0.18,1.14-0.45,1.56-0.81
			c0.43-0.36,0.75-0.8,0.97-1.33c0.22-0.53,0.33-1.15,0.33-1.85c0-0.7-0.11-1.32-0.33-1.85c-0.22-0.53-0.54-0.98-0.97-1.34
			c-0.43-0.36-0.95-0.63-1.56-0.81c-0.62-0.18-1.32-0.27-2.11-0.27h-9.64v-2.97h10.07c1.15,0,2.19,0.16,3.14,0.49
			c0.94,0.32,1.75,0.8,2.42,1.41c0.67,0.62,1.19,1.38,1.56,2.27c0.37,0.9,0.55,1.92,0.55,3.07c0,1.15-0.18,2.17-0.55,3.07
			c-0.37,0.9-0.88,1.65-1.56,2.27c-0.67,0.62-1.48,1.09-2.42,1.41c-0.94,0.32-1.99,0.49-3.14,0.49H23.58z"/>
		<path class="st0" d="M23.58,54.37V49c0-1.57,0.2-2.93,0.6-4.08s0.98-2.11,1.73-2.87c0.75-0.76,1.66-1.32,2.73-1.7
			c1.07-0.37,2.27-0.56,3.61-0.56c1.27,0,2.44,0.18,3.52,0.55c1.08,0.37,2.01,0.93,2.8,1.69c0.79,0.76,1.4,1.71,1.85,2.87
			c0.44,1.16,0.67,2.52,0.67,4.08l-0.01,5.39H23.58z M38.01,48.27c0-0.89-0.14-1.66-0.41-2.33c-0.27-0.67-0.66-1.23-1.16-1.67
			c-0.5-0.45-1.1-0.78-1.81-1.01s-1.5-0.34-2.37-0.34c-0.86,0-1.63,0.11-2.32,0.34c-0.69,0.22-1.28,0.56-1.76,1.01
			c-0.48,0.45-0.85,1-1.11,1.67s-0.39,1.45-0.39,2.33v3.13h11.34V48.27z"/>
		<path class="st0" d="M23.58,37.19V34.2h17.5v2.99H23.58z"/>
		<path class="st0" d="M32.28,31.28c-1.32,0-2.53-0.2-3.63-0.61c-1.1-0.41-2.04-0.98-2.83-1.71c-0.79-0.73-1.4-1.61-1.83-2.64
			c-0.43-1.03-0.65-2.17-0.65-3.41c0-1.24,0.22-2.38,0.65-3.41c0.43-1.03,1.04-1.91,1.83-2.65c0.79-0.73,1.73-1.3,2.83-1.71
			c1.1-0.41,2.31-0.61,3.63-0.61c1.33,0,2.55,0.2,3.66,0.61s2.06,0.98,2.86,1.71c0.8,0.73,1.42,1.62,1.86,2.65
			c0.44,1.03,0.67,2.17,0.67,3.41c0,1.25-0.22,2.39-0.67,3.41c-0.44,1.03-1.07,1.91-1.86,2.64c-0.8,0.73-1.75,1.3-2.86,1.71
			C34.83,31.07,33.61,31.28,32.28,31.28z M32.28,28.31c0.9,0,1.72-0.14,2.44-0.41s1.34-0.65,1.85-1.13
			c0.51-0.48,0.91-1.06,1.18-1.71c0.28-0.66,0.41-1.38,0.41-2.15s-0.14-1.49-0.41-2.15c-0.28-0.66-0.67-1.23-1.18-1.71
			c-0.51-0.48-1.13-0.86-1.85-1.13c-0.72-0.27-1.54-0.41-2.44-0.41s-1.71,0.14-2.43,0.41c-0.72,0.27-1.32,0.65-1.82,1.13
			c-0.5,0.48-0.88,1.05-1.14,1.71c-0.26,0.66-0.39,1.38-0.39,2.15s0.13,1.49,0.39,2.15c0.26,0.66,0.64,1.23,1.14,1.71
			c0.5,0.48,1.1,0.86,1.82,1.13S31.38,28.31,32.28,28.31z"/>
	</g>
</g>
</svg>
