<svg version="1.2" xmlns="http://www.w3.org/2000/svg" viewBox="0 0 995 173" width="995" height="173"><style>.a{fill:#00ac00}.b{fill:#fde000}.c{fill:#ff0506}</style><path class="a" d="m48.2 164.3l-40.2 0.1 20.4-153.4h62.8l13 100.7 1.3 0.2 39.3-100.9h61.6l-19.3 152.8-38.9 0.2 7.4-58.2c1.6-15.5 5.2-42.7 6.7-57.6l-6.4 15-41.9 100.8h-31.8l-19-114.9-0.6-1.3c-2.9 17.4-5.4 44.7-7.1 56.7z"/><path fill-rule="evenodd" class="a" d="m262.8 129.4l87.7 0.2-3.8 34.8-130.9 0.4 19.5-153.8 128.1-0.8-4.4 33-85.5-0.4-3.3 26.8 78.3-0.3-3.8 31.7-78.2-0.2z"/><path class="a" d="m457.1 110l3.3-30.4h67.9l-10.7 83.8h-26.2v-17h-1.1c-12.6 13.9-30 21-51.9 21-23.2 0-38.5-8.9-51.3-23.7-12.8-14.8-17-33-13.9-57.5 2.9-24.3 12.2-41.8 29.1-57 16.3-14.8 35.4-21.9 59.1-21.9 41.5 0 66.3 18.1 67.4 55.9l-41.4-0.1c-2.7-14.8-10.5-19.9-27.7-21.2-11.3-0.9-21.8 3.2-29.9 11.8-8.2 8.6-13.3 19.5-14.8 32.5-3.6 26.6 10.8 47.1 34.1 47.1 19.2 0 33.8-13.2 37.2-23.1z"/><path class="a" d="m527.1 164.1l80.3-153.1h42.1l41.1 153.3h-43.9l-7-26.9h-54.9l-13.3 26.6zm95.3-110l-24.2 52.6h36.2l-11.5-53.1z"/><path fill-rule="evenodd" class="a" d="m702.2 164.3l19.3-153.3h41.6l-14.3 118.4h74.3l-4 34.6z"/><path class="b" d="m888.2 27l20 20.9 0.3 24.1-12 15.4-19.5 15.8-12.1 11.6-6.9 13.2-0.6 14.1c1.7 2.1 2.3 5.6 4 7.6 1.9 2.4 4.6 4.6 6.4 6.9 2 1.3 3.9 2.7 6 3.8 1.8 0.9 3.8 2.5 5.7 3 0.3-3.7-1.4-8.2-1.5-12.1-0.2-4 0.1-8.1 1.5-12 3.5-10.4 14.1-16.2 21.6-23.4 3.2-3.1 6.2-6.4 8.8-10 1.2-1.8 2.5-4 3.5-5.9 0.2-0.6 0.3-1.3 0.6-1.3 3.6 0.2 8.5 8.8 9.1 9.8 2.4 4.6 2.7 8.6 2.8 10.1 0.1 1.4 0 2.8-0.2 4.2-0.7 4.9-3.8 9.7-5.3 14.5-0.9 3-1.5 6-1.5 9.2 0 2.9 1.1 5.3 1.7 8l1.4-0.6 8.1-8.2 9.8-12.4 7.7-13.6 7.1-13.4 4.5-14.9 1.6-12.9-1.9-16.9-12.9-18.9-17.6-9.8-19.2-4.8z"/><path class="c" d="m890 28.1c4.6-0.6 10.1 0.5 14.7 1.1 5.1 0.7 10.2 1.6 15 3 12 3.4 23.4 9.9 31.3 19.9 10.7 13.6 9.3 31 4.1 46.6-4.8 14.3-12.9 27.8-21.4 40.1-1.7 2.6-3.6 5-5.6 7.5-1 1.2-2.1 2.5-3.1 3.6-0.6 0.8-2 3.5-3 3.8 5.5-1.8 10.1-5.4 14.7-8.8 4.8-3.5 9.4-6.9 14-10.7 8.9-7.6 17.4-16.3 24.2-25.9 8.3-11.6 13.2-27.5 13-41.7-0.2-11.8-4.8-23-12.6-31.7-11.8-12.9-29.1-21.3-46.3-24.2-3.5-0.6-7-1.2-10.6-1.5-4.5-0.4-9.1-0.2-13.7 0.1-4.4 0.4-8.8 0.8-13.2 1.7-4.3 0.9-8.6 2.3-12.7 3.9-7.9 3.3-15.3 7.7-22.4 12.5-0.4 0.4-2.5 1.5-1.3 2 2.1 1 4.4 1.8 6.4 2.6 4.9 2 9.4 5 13.2 8.5 3.8 3.5 7.6 7.9 9.5 12.7 1.3 3.2 1.6 6.7 1.4 10.1-0.3 3.5-1 7.3-2.3 10.5-1.5 3.8-3.7 7.2-6.2 10.5-3.4 4.6-7.2 8.8-11.3 12.6-3.9 3.7-7.3 8.1-10 12.7-2.8 4.6-5.5 9.7-6.4 15-0.2 1.1-0.4 2.2-0.4 3.3-0.1 4.6 0.6 9.3 2.6 13.4 2.1 4.3 5.6 8.3 9.1 11.6 5.6 5 12.2 7.5 18.9 10.8-4.5-2.8-8.8-5.8-12.5-9.6-3.9-4-7.5-9.3-8.6-14.8-1.2-5.8 0.8-11.7 3.5-16.7 1.2-2.1 2.5-4.1 4-6 8.6-11.3 20.7-18.5 30.9-28 4.9-4.5 9.2-9.7 12.1-15.6 2.9-6 5.5-13 3.4-19.7-1.4-4.6-4.1-8.8-7.1-12.4-2.2-2.7-4.8-5.1-7.6-7.3-1.4-1-2.8-2-4.2-3-0.3-0.1-3.3-2.6-3.5-2.5z"/></svg>